<svg width="6" height="10" viewBox="0 0 6 10" fill="none" xmlns="http://www.w3.org/2000/svg">
<path d="M0.601167 0.0999193L0.100235 0.600886C0.0333416 0.66764 0 0.744536 0 0.83147C0 0.918194 0.0333416 0.995055 0.100235 1.06181L4.03816 4.99995L0.100341 8.93791C0.033447 9.0047 0.000105232 9.08156 0.000105232 9.16839C0.000105232 9.25525 0.033447 9.33211 0.100341 9.39887L0.601308 9.89976C0.668061 9.96666 0.744922 10 0.831786 10C0.91858 10 0.995441 9.96655 1.06219 9.89976L5.73164 5.23043C5.79843 5.16367 5.8318 5.08678 5.8318 4.99995C5.8318 4.91312 5.79843 4.83636 5.73164 4.76964L1.06219 0.0999193C0.995406 0.0331659 0.918545 0 0.831786 0C0.744922 0 0.668061 0.0331659 0.601167 0.0999193Z" fill="white"/>
</svg>
