<svg width="112" height="20" viewBox="0 0 112 20" fill="none" xmlns="http://www.w3.org/2000/svg">
<path d="M33.5453 0.821708L33.5453 0.82172L35.801 5.39243C36.0307 5.85796 36.4749 6.18049 36.9885 6.25505C36.9886 6.25506 36.9886 6.25506 36.9886 6.25507L42.0327 6.98805C42.5064 7.05692 42.6949 7.63853 42.3527 7.97206L42.3527 7.97209L38.7027 11.5299L38.7026 11.53C38.3313 11.8921 38.1613 12.4143 38.2494 12.926L39.1108 17.9495L39.1108 17.9496C39.1917 18.4207 38.697 18.7805 38.2734 18.558L33.762 16.1863L33.7618 16.1862C33.3025 15.945 32.7536 15.945 32.2943 16.1862L32.2942 16.1863L27.7827 18.558L27.7826 18.5581C27.3594 18.7806 26.8644 18.4211 26.9453 17.9496L26.9453 17.9495L27.8068 12.926C27.8948 12.4143 27.7249 11.8921 27.3536 11.53L27.3535 11.5299L23.7036 7.97217C23.7035 7.97215 23.7035 7.97212 23.7035 7.97209C23.3609 7.63784 23.5502 7.05663 24.0232 6.98808L24.0234 6.98805L29.0675 6.25507C29.0675 6.25506 29.0676 6.25506 29.0676 6.25505C29.5813 6.1805 30.0254 5.85797 30.2551 5.39245C30.2551 5.39244 30.2551 5.39243 30.2551 5.39243L32.5109 0.82172L32.511 0.82152C32.7222 0.393024 33.3335 0.392567 33.5453 0.821708Z" fill="#ED8A19" stroke="#ED8A19"/>
<path d="M56.5453 0.821708L56.5453 0.82172L58.801 5.39243C59.0307 5.85796 59.4749 6.18049 59.9885 6.25505C59.9886 6.25506 59.9886 6.25506 59.9886 6.25507L65.0327 6.98805C65.5064 7.05692 65.6949 7.63853 65.3527 7.97206L65.3527 7.97209L61.7027 11.5299L61.7026 11.53C61.3313 11.8921 61.1613 12.4143 61.2494 12.926L62.1108 17.9495L62.1108 17.9496C62.1917 18.4207 61.697 18.7805 61.2734 18.558L56.762 16.1863L56.7618 16.1862C56.3025 15.945 55.7536 15.945 55.2943 16.1862L55.2942 16.1863L50.7827 18.558L50.7826 18.5581C50.3594 18.7806 49.8644 18.4211 49.9453 17.9496L49.9453 17.9495L50.8068 12.926C50.8948 12.4143 50.7249 11.8921 50.3536 11.53L50.3535 11.5299L46.7036 7.97217C46.7035 7.97215 46.7035 7.97212 46.7035 7.97209C46.3609 7.63784 46.5502 7.05663 47.0232 6.98808L47.0234 6.98805L52.0675 6.25507C52.0675 6.25506 52.0676 6.25506 52.0676 6.25505C52.5813 6.1805 53.0254 5.85797 53.2551 5.39245C53.2551 5.39244 53.2551 5.39243 53.2551 5.39243L55.5109 0.82172L55.511 0.82152C55.7222 0.393024 56.3335 0.392567 56.5453 0.821708Z" fill="#ED8A19" stroke="#ED8A19"/>
<path d="M102.517 0.82172L102.517 0.821708C102.305 0.392568 101.694 0.393023 101.483 0.82152L101.483 0.82172L99.2271 5.39243C99.227 5.39243 99.227 5.39244 99.227 5.39245C98.9973 5.85797 98.5532 6.1805 98.0396 6.25505C98.0395 6.25506 98.0395 6.25506 98.0394 6.25507L92.9953 6.98805L92.9951 6.98808C92.5222 7.05663 92.3328 7.63784 92.6754 7.97209C92.6754 7.97212 92.6755 7.97215 92.6755 7.97217L96.3254 11.5299L96.3255 11.53C96.6968 11.8921 96.8667 12.4143 96.7787 12.926L95.9173 17.9495L95.9173 17.9496C95.8363 18.4211 96.3313 18.7806 96.7545 18.5581L96.7546 18.558L101.266 16.1863L101.266 16.1862C101.726 15.945 102.274 15.945 102.734 16.1862L102.734 16.1863L107.245 18.558C107.669 18.7805 108.164 18.4207 108.083 17.9496L108.083 17.9495L107.221 12.926C107.133 12.4143 107.303 11.8921 107.674 11.53L107.675 11.5299L111.325 7.97209L111.325 7.97206C111.667 7.63855 111.478 7.05697 111.005 6.98805L102.517 0.82172ZM102.517 0.82172L104.773 5.39243C104.773 5.39243 104.773 5.39244 104.773 5.39245C105.003 5.85797 105.447 6.1805 105.96 6.25505C105.96 6.25506 105.961 6.25506 105.961 6.25507L111.005 6.98805L102.517 0.82172Z" fill="#ED8A19" stroke="#ED8A19"/>
<path d="M79.5453 0.821708L79.5453 0.82172L81.801 5.39243C82.0307 5.85796 82.4749 6.18049 82.9885 6.25505C82.9886 6.25506 82.9886 6.25506 82.9886 6.25507L88.0327 6.98805C88.5064 7.05692 88.6949 7.63853 88.3527 7.97206L88.3527 7.97209L84.7027 11.5299L84.7026 11.53C84.3313 11.8921 84.1613 12.4143 84.2494 12.926L85.1108 17.9495L85.1108 17.9496C85.1917 18.4207 84.697 18.7805 84.2734 18.558L79.762 16.1863L79.7618 16.1862C79.3025 15.945 78.7536 15.945 78.2943 16.1862L78.2942 16.1863L73.7827 18.558L73.7826 18.5581C73.3594 18.7806 72.8644 18.4211 72.9453 17.9496L72.9453 17.9495L73.8068 12.926C73.8948 12.4143 73.7249 11.8921 73.3536 11.53L73.3535 11.5299L69.7036 7.97217C69.7035 7.97215 69.7035 7.97212 69.7035 7.97209C69.3609 7.63784 69.5502 7.05663 70.0232 6.98808L70.0234 6.98805L75.0675 6.25507C75.0675 6.25506 75.0676 6.25506 75.0676 6.25505C75.5813 6.1805 76.0254 5.85797 76.2551 5.39245C76.2551 5.39244 76.2551 5.39243 76.2551 5.39243L78.5109 0.82172L78.511 0.82152C78.7222 0.393024 79.3335 0.392567 79.5453 0.821708Z" fill="#ED8A19" stroke="#ED8A19"/>
<path d="M10.5453 0.821708L10.5453 0.82172L12.801 5.39243C13.0307 5.85796 13.4749 6.18049 13.9885 6.25505C13.9886 6.25506 13.9886 6.25506 13.9886 6.25507L19.0327 6.98805C19.5064 7.05692 19.6949 7.63853 19.3527 7.97206L19.3527 7.97209L15.7027 11.5299L15.7026 11.53C15.3313 11.8921 15.1613 12.4143 15.2494 12.926L16.1108 17.9495L16.1108 17.9496C16.1917 18.4207 15.697 18.7805 15.2734 18.558L10.762 16.1863L10.7618 16.1862C10.3025 15.945 9.75362 15.945 9.29431 16.1862L9.29416 16.1863L4.78267 18.558L4.78261 18.5581C4.3594 18.7806 3.8644 18.4211 3.94533 17.9496L3.94534 17.9495L4.80679 12.926C4.89482 12.4143 4.7249 11.8921 4.35359 11.53L4.35348 11.5299L0.703568 7.97217C0.70354 7.97215 0.703512 7.97212 0.703484 7.97209C0.360858 7.63784 0.550238 7.05663 1.0232 6.98808L1.02338 6.98805L6.06751 6.25507C6.06755 6.25506 6.06759 6.25506 6.06763 6.25505C6.58129 6.1805 7.0254 5.85797 7.25511 5.39245C7.25512 5.39244 7.25512 5.39243 7.25513 5.39243L9.51086 0.82172L9.51096 0.82152C9.72219 0.393024 10.3335 0.392567 10.5453 0.821708Z" fill="#ED8A19" stroke="#ED8A19"/>
</svg>
