<svg width="15" height="16" viewBox="0 0 15 16" fill="none" xmlns="http://www.w3.org/2000/svg">
<path d="M5.94319 0C2.66433 0 0 2.66433 0 5.94319C0 9.22205 2.66433 11.8864 5.94319 11.8864C7.24053 11.8864 8.43955 11.4685 9.41733 10.7611L14.0168 15.3496L15 14.3664L10.4552 9.81063C11.3483 8.77003 11.8864 7.41943 11.8864 5.94319C11.8864 2.66433 9.22205 0 5.94319 0ZM5.94319 0.699199C8.84377 0.699199 11.1872 3.04261 11.1872 5.94319C11.1872 8.84377 8.84377 11.1872 5.94319 11.1872C3.04261 11.1872 0.699199 8.84377 0.699199 5.94319C0.699199 3.04261 3.04261 0.699199 5.94319 0.699199Z" fill="#0D1939"/>
</svg>
